HIERARCHY
ROOT hips
{
  OFFSET 0 10.6860622 2.3727825e-15
  CHANNELS 6 Xposition Yposition Zposition Yrotation Xrotation Zrotation
  JOINT leftUpperLeg
  {
    OFFSET 0.6642549969 -0.9402397400000004 0
    CHANNELS 3 Yrotation Xrotation Zrotation
    JOINT leftLowerLeg
    {
      OFFSET 0 -3.997221335632195 0
      CHANNELS 3 Yrotation Xrotation Zrotation
      JOINT leftFoot
      {
        OFFSET -0.13777839790000004 -4.6145792000000005 -0.22186036399999998
        CHANNELS 3 Yrotation Xrotation Zrotation
        JOINT leftToes
        {
          OFFSET -0.03777410834999995 -0.9130806927000008 0.85230013
          CHANNELS 3 Yrotation Xrotation Zrotation
          End Site
          {
            OFFSET -0.03777410834999995 -0.9130806927000008 0.85230013
          }
        }
      }
    }
  }
  JOINT rightUpperLeg
  {
    OFFSET -0.6642778626 -0.9402397400000004 0
    CHANNELS 3 Yrotation Xrotation Zrotation
    JOINT rightLowerLeg
    {
      OFFSET 0 -3.997221452859387 0
      CHANNELS 3 Yrotation Xrotation Zrotation
      JOINT rightFoot
      {
        OFFSET 0.1377926176 -4.6145792000000005 -0.22185782299999995
        CHANNELS 3 Yrotation Xrotation Zrotation
        JOINT rightToes
        {
          OFFSET 0.037780746850000047 -0.9130806927000008 0.85230167
          CHANNELS 3 Yrotation Xrotation Zrotation
          End Site
          {
            OFFSET 0.037780746850000047 -0.9130806927000008 0.85230167
          }
        }
      }
    }
  }
  JOINT spine
  {
    OFFSET 0 0.13988381660000015 0
    CHANNELS 3 Yrotation Xrotation Zrotation
    JOINT chest
    {
      OFFSET 0 0.6191039003973773 0
      CHANNELS 3 Yrotation Xrotation Zrotation
      JOINT upperChest
      {
        OFFSET 0 0.9855186130586943 0
        CHANNELS 3 Yrotation Xrotation Zrotation
        JOINT leftShoulder
        {
          OFFSET 0.1807663869 1.5087829790000005 0
          CHANNELS 3 Yrotation Xrotation Zrotation
          JOINT leftUpperArm
          {
            OFFSET 0.5985063006419806 0 0
            CHANNELS 3 Yrotation Xrotation Zrotation
            JOINT leftLowerArm
            {
              OFFSET 2.2993332369501065 0 0
              CHANNELS 3 Yrotation Xrotation Zrotation
              JOINT leftHand
              {
                OFFSET 2.395047042602395 0 0
                CHANNELS 3 Yrotation Xrotation Zrotation
                JOINT leftIndexProximal
                {
                  OFFSET 0.5766295810000004 0.04556643899499946 0.17265095988184
                  CHANNELS 3 Yrotation Xrotation Zrotation
                  JOINT leftIndexIntermediate
                  {
                    OFFSET 0.2957229000000008 -0.019352197700001517 -0.007932640616999987
                    CHANNELS 3 Yrotation Xrotation Zrotation
                    JOINT leftIndexDistal
                    {
                      OFFSET 0.19008243099999922 -0.012484908149998475 -0.002786250786000012
                      CHANNELS 3 Yrotation Xrotation Zrotation
                      End Site
                      {
                        OFFSET 0.19008243099999922 -0.012484908149998475 -0.002786250786000012
                      }
                    }
                  }
                }
                JOINT leftMiddleProximal
                {
                  OFFSET 0.5834975091000001 0.0524350405149987 0.02204081888183999
                  CHANNELS 3 Yrotation Xrotation Zrotation
                  JOINT leftMiddleIntermediate
                  {
                    OFFSET 0.33880573540000003 -0.019871473270000717 -0.00000971183179999946
                    CHANNELS 3 Yrotation Xrotation Zrotation
                    JOINT leftMiddleDistal
                    {
                      OFFSET 0.20676022730000088 -0.012221336379999448 0.0001471936708000235
                      CHANNELS 3 Yrotation Xrotation Zrotation
                      End Site
                      {
                        OFFSET 0.20676022730000088 -0.012221336379999448 0.0001471936708000235
                      }
                    }
                  }
                }
                JOINT leftLittleProximal
                {
                  OFFSET 0.5344154683999995 -0.012880921405001189 -0.24414037221816004
                  CHANNELS 3 Yrotation Xrotation Zrotation
                  JOINT leftLittleIntermediate
                  {
                    OFFSET 0.21758961730000093 -0.011650919939999227 0.011893592810000034
                    CHANNELS 3 Yrotation Xrotation Zrotation
                    JOINT leftLittleDistal
                    {
                      OFFSET 0.1475273964999999 -0.008152365682999818 0.006001092492999946
                      CHANNELS 3 Yrotation Xrotation Zrotation
                      End Site
                      {
                        OFFSET 0.1475273964999999 -0.008152365682999818 0.006001092492999946
                      }
                    }
                  }
                }
                JOINT leftRingProximal
                {
                  OFFSET 0.5799399463000003 0.026911854694997794 -0.12150566991816003
                  CHANNELS 3 Yrotation Xrotation Zrotation
                  JOINT leftRingIntermediate
                  {
                    OFFSET 0.26167887460000006 -0.013480186499999602 0.010996293000000053
                    CHANNELS 3 Yrotation Xrotation Zrotation
                    JOINT leftRingDistal
                    {
                      OFFSET 0.17667108799999987 -0.008990287899999228 0.0055541023999999065
                      CHANNELS 3 Yrotation Xrotation Zrotation
                      End Site
                      {
                        OFFSET 0.17667108799999987 -0.008990287899999228 0.0055541023999999065
                      }
                    }
                  }
                }
                JOINT leftThumbProximal
                {
                  OFFSET 0.11018806699999972 -0.09448718900500053 0.17047963138184
                  CHANNELS 3 Yrotation Xrotation Zrotation
                  JOINT leftThumbIntermediate
                  {
                    OFFSET 0.31062601459999983 -0.08126270900000132 0.15443142000000007
                    CHANNELS 3 Yrotation Xrotation Zrotation
                    JOINT leftThumbDistal
                    {
                      OFFSET 0.21627175790000086 -0.08833193599999878 0.018771167799999988
                      CHANNELS 3 Yrotation Xrotation Zrotation
                      End Site
                      {
                        OFFSET 0.21627175790000086 -0.08833193599999878 0.018771167799999988
                      }
                    }
                  }
                }
              }
            }
          }
        }
        JOINT neck
        {
          OFFSET 0 1.5463305265074576 0
          CHANNELS 3 Yrotation Xrotation Zrotation
          JOINT head
          {
            OFFSET 0 0.8456443600000344 0
            CHANNELS 3 Yrotation Xrotation Zrotation
            JOINT leftEye
            {
              OFFSET 0.30408573140000006 0.5104519199999995 0.1276382305
              CHANNELS 3 Yrotation Xrotation Zrotation
              End Site
              {
                OFFSET 0.30408573140000006 0.5104519199999995 0.1276382305
              }
            }
            JOINT rightEye
            {
              OFFSET -0.30409491089999996 0.5104519199999995 0.1276379445
              CHANNELS 3 Yrotation Xrotation Zrotation
              End Site
              {
                OFFSET -0.30409491089999996 0.5104519199999995 0.1276379445
              }
            }
            JOINT jaw
            {
              OFFSET -3.155239131000001e-7 -0.11984121820000082 0.60178107
              CHANNELS 3 Yrotation Xrotation Zrotation
              End Site
              {
                OFFSET -3.155239131000001e-7 -0.11984121820000082 0.60178107
              }
            }
          }
        }
        JOINT rightShoulder
        {
          OFFSET -0.1807303465 1.5087829790000005 0
          CHANNELS 3 Yrotation Xrotation Zrotation
          JOINT rightUpperArm
          {
            OFFSET -0.5985063796536958 0 0
            CHANNELS 3 Yrotation Xrotation Zrotation
            JOINT rightLowerArm
            {
              OFFSET -2.2993322059002854 0 0
              CHANNELS 3 Yrotation Xrotation Zrotation
              JOINT rightHand
              {
                OFFSET -2.395045314457259 0 0
                CHANNELS 3 Yrotation Xrotation Zrotation
                JOINT rightIndexProximal
                {
                  OFFSET -0.5764487688300002 0.0441371204405987 0.17361932004999997
                  CHANNELS 3 Yrotation Xrotation Zrotation
                  JOINT rightIndexIntermediate
                  {
                    OFFSET -0.29573011380000047 -0.01934826376999843 -0.007698921482999974
                    CHANNELS 3 Yrotation Xrotation Zrotation
                    JOINT rightIndexDistal
                    {
                      OFFSET -0.19008373999999884 -0.012503266380000655 -0.0026365778999999897
                      CHANNELS 3 Yrotation Xrotation Zrotation
                      End Site
                      {
                        OFFSET -0.19008373999999884 -0.012503266380000655 -0.0026365778999999897
                      }
                    }
                  }
                }
                JOINT rightMiddleProximal
                {
                  OFFSET -0.5834852037300005 0.05211639405060153 0.02307162440000001
                  CHANNELS 3 Yrotation Xrotation Zrotation
                  JOINT rightMiddleIntermediate
                  {
                    OFFSET -0.33880114510000003 -0.019952774050000954 0.0002455003561999819
                    CHANNELS 3 Yrotation Xrotation Zrotation
                    JOINT rightMiddleDistal
                    {
                      OFFSET -0.20675694929999955 -0.012273788999999091 0.00030209124000002766
                      CHANNELS 3 Yrotation Xrotation Zrotation
                      End Site
                      {
                        OFFSET -0.20675694929999955 -0.012273788999999091 0.00030209124000002766
                      }
                    }
                  }
                }
                JOINT rightLittleProximal
                {
                  OFFSET -0.5346811737299992 -0.011214256288399227 -0.24363941305000003
                  CHANNELS 3 Yrotation Xrotation Zrotation
                  JOINT rightLittleIntermediate
                  {
                    OFFSET -0.21757715980000092 -0.011771559690000988 0.01201554387
                    CHANNELS 3 Yrotation Xrotation Zrotation
                    JOINT rightLittleDistal
                    {
                      OFFSET -0.1475201849000004 -0.00822055339600003 0.006082065407000015
                      CHANNELS 3 Yrotation Xrotation Zrotation
                      End Site
                      {
                        OFFSET -0.1475201849000004 -0.00822055339600003 0.006082065407000015
                      }
                    }
                  }
                }
                JOINT rightRingProximal
                {
                  OFFSET -0.5800810755299999 0.027657985680600072 -0.12066365025000003
                  CHANNELS 3 Yrotation Xrotation Zrotation
                  JOINT rightRingIntermediate
                  {
                    OFFSET -0.26166445029999974 -0.013623118409999302 0.011164098990000045
                    CHANNELS 3 Yrotation Xrotation Zrotation
                    JOINT rightRingDistal
                    {
                      OFFSET -0.17666387530000027 -0.009072900100000503 0.005668185599999959
                      CHANNELS 3 Yrotation Xrotation Zrotation
                      End Site
                      {
                        OFFSET -0.17666387530000027 -0.009072900100000503 0.005668185599999959
                      }
                    }
                  }
                }
                JOINT rightThumbProximal
                {
                  OFFSET -0.10997596379000074 -0.09577489355940072 0.16989765924999997
                  CHANNELS 3 Yrotation Xrotation Zrotation
                  JOINT rightThumbIntermediate
                  {
                    OFFSET -0.31036620999999986 -0.08229339117999834 0.15440884469999996
                    CHANNELS 3 Yrotation Xrotation Zrotation
                    JOINT rightThumbDistal
                    {
                      OFFSET -0.21631306399999906 -0.08825326400000111 0.018656797720000014
                      CHANNELS 3 Yrotation Xrotation Zrotation
                      End Site
                      {
                        OFFSET -0.21631306399999906 -0.08825326400000111 0.018656797720000014
                      }
                    }
                  }
                }
              }
            }
          }
        }
      }
    }
  }
}
MOTION
Frames: 7
Frame Time: 0.03333333333333333
-0.7989224688199847 -6.198398729291755 0.9484714475685446 -180 -35.12510182563974 -4.936019921647017e-15 -53.58567959919437 -59.48422117800584 100.33002999783223 -109.8565410428835 47.27125372449559 -120.53529236536221 47.865912443820505 45.41962001002562 23.43723020342864 0 0 0 54.894226653964786 -59.37775458912068 -102.57903993420955 116.62009036246252 44.728042191345395 129.9957516170271 -46.9578403587 36.87409576621661 -22.431059912385482 0 0 0 -1.003107587070008 16.689421480469306 -2.492839601609542 -0.6006594148628679 18.11202915765031 -2.558092734172696 0 0 0 -19.370865073880573 -23.726607488486923 -13.026400468818363 -19.934029371922968 -23.9221456145507 -2.022808009071935 -38.31965825124611 -7.261272602358519 -20.575360864660304 13.619888246431735 -5.415633878402012 -51.785632621548565 0 0 0 0 0 0 0 0 0 0 0 0 0 0 0 0 0 0 0 0 0 0 0 0 0 0 0 0 0 0 0 0 0 0 0 0 0 0 0 0 0 0 0 0 0 -19.988635867964643 -13.862360931477797 19.83897267600995 22.29139351446699 -35.48115926786738 -4.674732433450361 0 0 0 0 0 0 0 0 0 19.327457024635198 -21.35470882964331 7.2142167622002455 40.49450046170821 -22.13378635297711 0.8500441935536429 51.666717995004 -9.453508178294959 18.90104132021091 7.497493101049187 -30.90799411249128 25.295375142723085 0 0 0 0 0 0 0 0 0 0 0 0 0 0 0 0 0 0 0 0 0 0 0 0 0 0 0 0 0 0 0 0 0 0 0 0 0 0 0 0 0 0 0 0 0
-0.7989224688199847 -6.18195218769066 0.9383941229578153 -180 -34.74957685705195 -4.86758754626188e-15 -52.969231262689114 -59.517246561212616 99.83842710436289 -109.69590174191146 47.321019165018754 -120.3151601735993 47.48665984535774 45.08430506061933 22.92145428239341 0 0 0 54.28068277596322 -59.489259026419965 -101.87572314269616 116.36908551756292 44.84510807478473 129.64199929336428 -46.8209294289878 36.74504723332044 -21.999317261163448 0 0 0 -1.0001817027377753 16.112594586224297 -2.48240450407483 -0.5995194319633268 17.786719799702624 -2.554518007753839 0 0 0 -19.406461776987815 -23.383583546557492 -13.4515492302258 -19.934029371922968 -23.92214748256553 -2.022808009071935 -38.094610645504204 -7.179178015366059 -20.486095353145487 13.418028700517793 -5.0884293949256865 -51.78404945172708 0 0 0 0 0 0 0 0 0 0 0 0 0 0 0 0 0 0 0 0 0 0 0 0 0 0 0 0 0 0 0 0 0 0 0 0 0 0 0 0 0 0 0 0 0 -19.95599055463436 -13.49310650309782 19.70087555361943 22.152492451097622 -35.3128549207303 -4.606258561423214 0 0 0 0 0 0 0 0 0 19.743814544560603 -20.568018673836427 7.555735260669264 40.49450046170821 -22.13378635297711 0.8500441935536429 50.81953328094901 -9.176305244657874 18.702868546040225 8.222633705464087 -30.480446914903585 25.306126741716263 0 0 0 0 0 0 0 0 0 0 0 0 0 0 0 0 0 0 0 0 0 0 0 0 0 0 0 0 0 0 0 0 0 0 0 0 0 0 0 0 0 0 0 0 0
-0.7989224688199847 -6.165506451266381 0.9283167983470861 -180 -34.37407997774057 -4.799780057339569e-15 -52.351689744164155 -59.54758869258752 99.34569983996967 -109.53482034605784 47.37039282337419 -120.09459541006669 47.11390924658285 44.74664312127689 22.411859490610226 0 0 0 53.66249465841128 -59.59690158152785 -101.16783148713154 116.11656163799972 44.961075414013614 129.28681295033098 -46.685470004516915 36.61517718337596 -21.568698374519975 0 0 0 -0.9973730276267615 15.535827655143535 -2.4720309905870588 -0.5984029420346619 17.461416570974386 -2.5509559721661654 0 0 0 -19.44472590677391 -23.040838548765603 -13.875794938931872 -19.934029371922968 -23.9221456145507 -2.022808009071935 -37.869497773649044 -7.097438086547584 -20.396541799624337 13.216286633153546 -4.761238290404326 -51.78361216909484 0 0 0 0 0 0 0 0 0 0 0 0 0 0 0 0 0 0 0 0 0 0 0 0 0 0 0 0 0 0 0 0 0 0 0 0 0 0 0 0 0 0 0 0 0 -19.924290596242617 -13.12357448351731 19.563125366467084 22.014057170461772 -35.14431953401067 -4.538391715149146 0 0 0 0 0 0 0 0 0 20.162932277639396 -19.783924039373357 7.901500784469933 40.49450046170821 -22.13378635297711 0.8500441935536429 49.97225776502563 -8.902100587490121 18.500783886861694 8.9445625569192 -30.05313593004724 25.3230739169916 0 0 0 0 0 0 0 0 0 0 0 0 0 0 0 0 0 0 0 0 0 0 0 0 0 0 0 0 0 0 0 0 0 0 0 0 0 0 0 0 0 0 0 0 0
-0.7989224688199847 -6.1490599096652865 0.9182392053440855 -180 -33.99859890914004 -4.732580774233483e-15 -51.733166612486166 -59.57524706895612 98.85197998531454 -109.37332794731724 47.41931306862034 -119.87365546566605 46.74759001288587 44.40669703962996 21.90837291251424 0 0 0 53.03978795525211 -59.70064544766107 -100.45547413571109 115.86252279082036 45.07590900114975 128.9302089591996 -46.551474745073534 36.48451033881953 -21.139226804674013 0 0 0 -0.9946812944168666 14.959143275661722 -2.461715503852807 -0.5973086499045267 17.136135783170957 -2.547408030686729 0 0 0 -19.48563356837167 -22.69840811232985 -14.299158203121236 -19.934029371922968 -23.92214748256553 -2.022808009071935 -37.644299815642306 -7.016050739104787 -20.306679657625256 13.014655460248933 -4.434066581317742 -51.7843496187008 0 0 0 0 0 0 0 0 0 0 0 0 0 0 0 0 0 0 0 0 0 0 0 0 0 0 0 0 0 0 0 0 0 0 0 0 0 0 0 0 0 0 0 0 0 -19.893536344820927 -12.753786693713195 19.425726581296814 21.876073445467092 -34.97556559271456 -4.471125092232167 0 0 0 0 0 0 0 0 0 20.58483454552107 -19.00258160726402 8.251500414896684 40.49450046170821 -22.13378635297711 0.8500441935536429 49.12497069396724 -8.630982991036193 18.294846361239536 9.663319193657875 -29.626197519490674 25.346142585817915 0 0 0 0 0 0 0 0 0 0 0 0 0 0 0 0 0 0 0 0 0 0 0 0 0 0 0 0 0 0 0 0 0 0 0 0 0 0 0 0 0 0 0 0 0
-0.7989224688199847 -6.1326141732410075 0.9081618807333562 -180 -33.623154333242006 -4.665978993963895e-15 -51.11374022248585 -59.60018133097341 98.35732383952816 -109.21139678922486 47.46782919076199 -119.6522916094804 46.38760226236876 44.06453743791288 21.410898999812716 0 0 0 52.41275934259785 -59.80045463576718 -99.73882849945376 115.60697302630574 45.189636377329194 128.57217380635768 -46.41893140384132 36.35304157197605 -20.71089264628391 0 0 0 -0.9921029518127288 14.382577774496063 -2.4514571707012425 -0.5962385618577206 16.810873996003238 -2.5438713148708407 0 0 0 -19.529168724457275 -22.356336763932244 -14.72165974901776 -19.934029371922968 -23.9221456145507 -2.022808009071935 -37.41901629634057 -6.935015192877065 -20.216508126155794 12.81312276759126 -4.106932255036175 -51.78622276403649 0 0 0 0 0 0 0 0 0 0 0 0 0 0 0 0 0 0 0 0 0 0 0 0 0 0 0 0 0 0 0 0 0 0 0 0 0 0 0 0 0 0 0 0 0 -19.8637152067755 -12.383742885005496 19.28865801126014 21.738549894821094 -34.80659714771499 -4.404462112342668 0 0 0 0 0 0 0 0 0 21.00956607315892 -18.224188837823952 8.605727003269829 40.49450046170821 -22.13378635297711 0.8500441935536429 48.27776369840157 -8.363054411627568 18.085143120890848 10.378948034829746 -29.199709010505572 25.3752209772867 0 0 0 0 0 0 0 0 0 0 0 0 0 0 0 0 0 0 0 0 0 0 0 0 0 0 0 0 0 0 0 0 0 0 0 0 0 0 0 0 0 0 0 0 0
-0.7989224688199847 -6.116168168424456 0.898084556122627 -180 -33.24775425768546 -4.599963036079502e-15 -50.493507591985626 -59.62241243129493 97.8618269662506 -109.04905459672828 47.51591482241146 -119.43053928252839 46.03387164155486 43.72022357349357 20.91935525431081 0 0 0 51.781493719634014 -59.89627360956021 -99.01801673933305 115.34992118618857 45.30223193305878 128.21271581039974 -46.287846417302326 36.22080812003869 -20.283714129057095 0 0 0 -0.9896396545505178 13.806159092943167 -2.4412552992674983 -0.5951903528552617 16.485636682329297 -2.5403480930639417 0 0 0 -19.57530623575074 -22.014646534312046 -15.143313001550522 -19.934029371922968 -23.9221456145507 -2.022808009071935 -37.19365638123141 -6.854338412533267 -20.126038460611674 12.611681836137414 -3.7798417186221553 -51.78925762903291 0 0 0 0 0 0 0 0 0 0 0 0 0 0 0 0 0 0 0 0 0 0 0 0 0 0 0 0 0 0 0 0 0 0 0 0 0 0 0 0 0 0 0 0 0 -19.834832925045493 -12.013464546897929 19.151918052838134 21.601459269089915 -34.63738499814232 -4.338383054075627 0 0 0 0 0 0 0 0 0 21.437146640694742 -17.44890466709452 8.96416818876927 40.49450046170821 -22.13378635297711 0.8500441935536429 47.43071379359769 -8.098399766447384 17.87174470878793 11.091495472049473 -28.773814669211454 25.41024066951196 0 0 0 0 0 0 0 0 0 0 0 0 0 0 0 0 0 0 0 0 0 0 0 0 0 0 0 0 0 0 0 0 0 0 0 0 0 0 0 0 0 0 0 0 0
-0.7989224688199847 -6.099721895215634 0.8880072315118978 -180 -32.872390228898055 -4.5345182458052555e-15 -49.872609427705974 -59.64192148853926 97.36565604980571 -108.88628779949615 47.56356375226002 -119.20838280880419 45.68633396487166 43.37383184163123 20.43367269036396 0 0 0 51.14615937775663 -59.98807485794338 -98.29315405978856 115.09138176477695 45.41366016485855 127.85187498114419 -46.15822528106088 36.08780470586578 -19.85768579929899 0 0 0 -0.9872870665868166 13.229916578658607 -2.431105719130811 -0.5941659026275096 16.160432819988568 -2.536837762767567 0 0 0 -19.62402581380476 -21.673377667866124 -15.564138564188424 -19.934029371922968 -23.9221456145507 -2.022808009071935 -36.96822714165338 -6.77402048483352 -20.0352742500693 12.410323773359044 -3.4528077877845025 -51.79344141481235 0 0 0 0 0 0 0 0 0 0 0 0 0 0 0 0 0 0 0 0 0 0 0 0 0 0 0 0 0 0 0 0 0 0 0 0 0 0 0 0 0 0 0 0 0 -19.806876200428846 -11.642953789894761 19.0154923966492 21.464817934561747 -34.46797058744064 -4.272902255089797 0 0 0 0 0 0 0 0 0 21.86762366788872 -16.676911321949436 9.32682332959676 40.49450046170821 -22.13378635297711 0.8500441935536429 46.58390351316218 -7.837105104823855 17.654736231085096 11.800995669004035 -28.348613806065476 25.451114712356496 0 0 0 0 0 0 0 0 0 0 0 0 0 0 0 0 0 0 0 0 0 0 0 0 0 0 0 0 0 0 0 0 0 0 0 0 0 0 0 0 0 0 0 0 0
